<svg width="102" height="32" viewBox="0 0 102 32" fill="none" xmlns="http://www.w3.org/2000/svg">
  <path
    d="M24.5507 30.7126C24.2647 30.932 23.9225 31.0331 23.5257 31.0145C23.0442 30.992 22.5636 30.9673 22.0829 30.9396C22.1298 30.1123 22.177 29.2847 22.2235 28.457C22.6962 28.4839 23.1689 28.5085 23.6416 28.5308C24.0369 28.5492 24.361 28.6728 24.6149 28.9035C24.8889 29.1452 25.0201 29.4528 25.0058 29.8278C24.9928 30.1981 24.8416 30.4938 24.5507 30.7126ZM22.3518 26.2004C22.6977 26.2192 23.0442 26.2381 23.3901 26.2548C23.6889 26.2698 23.937 26.3712 24.1364 26.56C24.3319 26.7389 24.4235 26.9786 24.4114 27.2791C24.3995 27.5693 24.2927 27.8006 24.0907 27.9719C23.8879 28.1434 23.6376 28.2223 23.3404 28.2077C22.9738 28.1899 22.6072 28.1707 22.2414 28.15C22.2784 27.4999 22.3147 26.8496 22.3518 26.2004ZM25.003 28.8509C24.7762 28.5773 24.4729 28.3949 24.091 28.3026C24.4961 28.0995 24.7065 27.7619 24.7247 27.2915C24.7407 26.8809 24.6211 26.556 24.3679 26.3149C24.1296 26.0888 23.8014 25.9668 23.3825 25.946C22.9437 25.9246 22.5051 25.9006 22.0661 25.8748C21.9612 27.6598 21.8565 29.4445 21.7516 31.2293C22.3351 31.2638 22.9192 31.2943 23.5028 31.3216C23.9955 31.3447 24.4188 31.2165 24.7694 30.9393C25.1189 30.6671 25.3009 30.2995 25.3169 29.8391C25.3304 29.454 25.2254 29.1248 25.003 28.8509Z"
    fill="white" />
  <path
    d="M27.6471 28.8113C27.5653 28.75 27.4792 28.7006 27.3873 28.6639C27.2958 28.6268 27.1983 28.6073 27.0952 28.605C27.008 28.6029 26.9255 28.6272 26.8471 28.6777C26.7685 28.7286 26.7003 28.792 26.6414 28.868C26.5825 28.9444 26.5352 29.0294 26.4997 29.1235C26.4633 29.2179 26.4441 29.3052 26.4422 29.3852C26.4238 30.066 26.4052 30.7468 26.3871 31.4277C26.2795 31.4249 26.1723 31.4215 26.0652 31.4186C26.0953 30.385 26.1255 29.3512 26.1553 28.3177C26.2606 28.3205 26.3656 28.3235 26.471 28.3264C26.467 28.4665 26.463 28.6068 26.459 28.7467C26.5295 28.6338 26.6197 28.5308 26.7296 28.4381C26.8394 28.3461 26.9586 28.3009 27.0872 28.3041C27.2459 28.3074 27.3764 28.3278 27.4782 28.3648C27.5799 28.402 27.6947 28.467 27.8212 28.5592C27.7633 28.6434 27.7049 28.7274 27.6471 28.8113Z"
    fill="white" />
  <path
    d="M29.4846 28.6234C29.7978 28.6256 30.075 28.711 30.3169 28.8814C30.5695 29.0565 30.7225 29.2861 30.7752 29.5713C29.9086 29.5742 29.0421 29.5694 28.1755 29.5564C28.3921 28.9282 28.8267 28.6194 29.4846 28.6234ZM30.0663 31.1351C29.8883 31.2045 29.6892 31.239 29.4693 31.2376C29.0402 31.2353 28.7046 31.106 28.4619 30.8524C28.23 30.6043 28.1182 30.2692 28.1247 29.8486C29.1278 29.8638 30.1303 29.869 31.1338 29.8627C31.1308 29.4072 30.9713 29.038 30.6568 28.7531C30.3471 28.4683 29.958 28.3254 29.4868 28.3233C29.0097 28.3204 28.6141 28.4683 28.2958 28.7695C27.983 29.0653 27.8209 29.4453 27.8122 29.9113C27.8042 30.3722 27.9565 30.7584 28.2711 31.0682C28.5807 31.3778 28.9799 31.5354 29.4675 31.538C29.6728 31.5392 29.856 31.5148 30.0187 31.4654C30.4438 31.336 30.757 31.0839 30.9587 30.7125C30.862 30.6707 30.7657 30.6286 30.6695 30.5858C30.4922 30.8619 30.2916 31.0453 30.0663 31.1351Z"
    fill="white" />
  <path
    d="M34.2633 30.8028C34.009 31.06 33.6932 31.1934 33.3165 31.2011C32.9444 31.2086 32.6229 31.0866 32.3533 30.8344C32.0833 30.5834 31.9474 30.2793 31.9434 29.9232C31.9394 29.5627 32.0681 29.2533 32.3279 28.9942C32.5812 28.7405 32.8925 28.6105 33.2624 28.6026C33.6275 28.5948 33.9432 28.7147 34.2131 28.9633C34.4828 29.211 34.6241 29.5123 34.6343 29.8679C34.6455 30.2281 34.5224 30.5405 34.2633 30.8028ZM34.8421 28.3057C34.7372 28.3093 34.6321 28.3125 34.5267 28.3158C34.5322 28.4956 34.5369 28.6755 34.5428 28.8565C34.1911 28.4757 33.7637 28.2915 33.2565 28.3019C32.7947 28.3118 32.4081 28.4727 32.0924 28.7873C31.7829 29.0966 31.6281 29.4756 31.6329 29.9264C31.6364 30.3773 31.801 30.7567 32.1288 31.0629C32.4513 31.3644 32.8506 31.5116 33.3223 31.5015C33.8465 31.4907 34.2746 31.2835 34.6023 30.8834C34.6078 31.0612 34.6132 31.2388 34.6183 31.4167C34.7251 31.4135 34.8327 31.4099 34.9406 31.4071C34.9076 30.3726 34.8752 29.3393 34.8421 28.3057Z"
    fill="white" />
  <path
    d="M38.3164 30.6369C38.0694 30.9014 37.7569 31.0435 37.3805 31.0613C37.0091 31.0791 36.684 30.9658 36.4071 30.722C36.1306 30.4778 35.9859 30.178 35.9725 29.8226C35.9584 29.4622 36.0783 29.1494 36.3305 28.8831C36.5771 28.6218 36.8845 28.4835 37.2544 28.4653C37.6188 28.4471 37.9385 28.5583 38.2155 28.7988C38.4915 29.0394 38.6416 29.3366 38.6616 29.6915C38.6827 30.0516 38.5678 30.367 38.3164 30.6369ZM38.7019 25.6709L38.392 25.6891C38.4497 26.694 38.5075 27.699 38.566 28.7037C38.1875 28.3195 37.7471 28.1405 37.2398 28.1652C36.7788 28.1877 36.3966 28.3588 36.0903 28.6821C35.7884 29.0006 35.6449 29.3838 35.6619 29.834C35.6783 30.2848 35.853 30.6595 36.1898 30.9563C36.5208 31.2488 36.923 31.3846 37.3954 31.3618C37.9295 31.3353 38.3593 31.1086 38.6798 30.6841C38.6907 30.8688 38.7019 31.0537 38.7121 31.239C38.8192 31.2324 38.9268 31.2262 39.0344 31.2201C38.9235 29.37 38.812 27.5207 38.7019 25.6709Z"
    fill="white" />
  <path
    d="M91.668 30.8016V0.191664H93.3829V29.0441H102V30.8016H91.668ZM82.4085 16.74C80.9508 15.2823 79.2068 14.5534 77.1781 14.5534C75.1201 14.5534 73.3765 15.2684 71.9479 16.697C70.4901 18.1543 69.7613 19.9124 69.7613 21.9701C69.7613 24 70.4901 25.7429 71.9479 27.2005C73.4055 28.6583 75.1481 29.3868 77.1781 29.3868C79.2359 29.3868 80.9788 28.6728 82.4085 27.2434C83.8659 25.7857 84.5946 24.028 84.5946 21.9701C84.5946 19.9413 83.8659 18.1977 82.4085 16.74ZM84.2517 30.8016V27.7579C82.3936 29.9869 80.0356 31.1016 77.1781 31.1016C74.6056 31.1016 72.4478 30.2304 70.7045 28.4864C68.9322 26.7144 68.0464 24.5425 68.0464 21.9701C68.0464 19.3977 68.9179 17.2402 70.662 15.4966C72.4336 13.7247 74.6056 12.8389 77.1781 12.8389C80.0072 12.8389 82.3652 13.9532 84.2517 16.1826V13.0961H86.0094V30.8016H84.2517ZM63.5454 30.8016H61.7876V13.0961H63.5454V30.8016ZM62.6879 9.9235C62.3729 9.9235 62.0449 9.79485 61.702 9.53764C61.4447 9.28043 61.3012 8.93745 61.2735 8.5087C61.2735 7.73697 61.7452 7.26534 62.6879 7.09422C63.402 7.09422 63.8735 7.56543 64.1027 8.5087C64.1027 9.45187 63.6312 9.9235 62.6879 9.9235ZM52.0987 29.4296C54.1567 29.4296 55.9573 28.744 57.5008 27.3721V29.5583C55.8996 30.6159 54.0992 31.1445 52.0987 31.1445C49.4685 31.1445 47.2827 30.2729 45.5395 28.5293C43.7959 26.7868 42.9247 24.6002 42.9247 21.9701C42.9247 19.341 43.7959 17.1546 45.5395 15.4108C47.2827 13.668 49.4685 12.796 52.0987 12.796C54.3561 12.796 56.1571 13.3101 57.5008 14.339V16.4398L56.3861 15.711C56.3861 15.711 55.4977 15.2038 55.1855 15.0679C54.1327 14.6098 53.0703 14.5109 52.0987 14.5109C49.8977 14.5109 48.1116 15.1965 46.7403 16.5684C45.339 17.9691 44.6396 19.7697 44.6396 21.9701C44.6396 24.1425 45.339 25.9289 46.7403 27.3292C48.1399 28.7298 49.9264 29.4296 52.0987 29.4296Z"
    fill="white" />
  <path
    d="M34.066 16.8119C34.1066 16.6447 35.2134 12.0991 35.2788 11.832H29.1269C29.0873 12.0006 28.0202 16.5463 27.9577 16.8119H34.066ZM32.3895 24.1162C32.3536 24.1162 32.3194 24.0995 32.2977 24.0708C32.2816 24.0502 32.2729 24.0251 32.2729 23.9993C32.2729 23.9899 32.274 23.9803 32.2766 23.9713C32.2766 23.9713 33.6662 18.4541 33.7358 18.1779H27.6303C27.5877 18.3502 26.2468 23.8008 26.2468 23.8008C26.2341 23.8528 26.1875 23.8895 26.1342 23.8895H25.0463C25.0107 23.8895 24.9769 23.8732 24.9551 23.8452C24.9388 23.8245 24.9297 23.7987 24.9297 23.7733C24.9297 23.7642 24.9307 23.7551 24.9329 23.7461C24.9329 23.7461 26.1937 18.4504 26.2587 18.1779H20.5134C20.4763 18.1779 20.4415 18.1602 20.4193 18.1304C20.4047 18.1105 20.3972 18.086 20.3972 18.0617C20.3972 18.0498 20.3989 18.038 20.4029 18.0261L20.7652 16.8928C20.7808 16.8446 20.8255 16.8119 20.8756 16.8119H26.5868C26.6275 16.6447 27.7342 12.0991 27.7992 11.832H21.5558C21.5184 11.832 21.4834 11.8139 21.4616 11.7837C21.4472 11.7634 21.4395 11.7394 21.4395 11.7154C21.4395 11.703 21.4417 11.6907 21.4457 11.679L21.808 10.5909C21.8239 10.5434 21.8686 10.5114 21.9181 10.5114H28.1281C28.1699 10.3394 29.5113 4.84338 29.5113 4.84338C29.5237 4.79137 29.5704 4.75477 29.6239 4.75477H30.7121C30.7477 4.75477 30.7811 4.77071 30.8033 4.79902C30.8192 4.81978 30.8284 4.84526 30.8284 4.87137C30.8284 4.88039 30.8272 4.8892 30.825 4.8979C30.825 4.8979 29.5636 10.2389 29.4997 10.5114H35.5618C35.6036 10.3394 36.9454 4.84338 36.9454 4.84338C36.9581 4.79137 37.0046 4.75477 37.058 4.75477H38.1458C38.1815 4.75477 38.2152 4.77071 38.237 4.79902C38.2534 4.81978 38.2621 4.84526 38.2621 4.87137C38.2621 4.88039 38.2614 4.8892 38.2592 4.8979C38.2592 4.8979 36.9974 10.2389 36.9334 10.5114H42.7242C42.7619 10.5114 42.7964 10.5295 42.8187 10.5597C42.8331 10.5796 42.8404 10.604 42.8404 10.628C42.8404 10.6403 42.8386 10.6527 42.8346 10.6647L42.472 11.7525C42.456 11.8 42.4117 11.832 42.3615 11.832H36.6053C36.5646 11.9992 35.4579 16.5448 35.3925 16.8119H41.4096C41.4466 16.8119 41.4816 16.8297 41.5037 16.8598C41.5183 16.8797 41.5259 16.9038 41.5259 16.928C41.5259 16.9405 41.524 16.9522 41.5205 16.9637L41.1578 18.0974C41.1421 18.1453 41.0975 18.1779 41.047 18.1779H35.0644C35.0222 18.3502 33.6351 24.0272 33.6351 24.0272C33.6227 24.0792 33.5762 24.1162 33.5224 24.1162H32.3895Z"
    fill="white" />
  <path
    d="M12.9898 30.5247C11.8751 30.9247 10.5602 31.125 9.04578 31.125C4.35774 31.125 1.34245 28.9104 0 24.4797L1.75736 23.8798C2.75767 27.5386 5.18683 29.3672 9.04578 29.3672C11.2458 29.3672 12.9749 28.8247 14.2327 27.7384C15.519 26.6237 16.162 24.9945 16.162 22.8507C16.162 20.8216 15.4045 19.1358 13.89 17.7922C13.4894 17.4209 12.8754 17.006 12.0466 16.5489C11.2171 16.0918 10.1602 15.5777 8.87434 15.0054C6.44434 13.9195 4.78691 12.9766 3.90068 12.1762C2.41469 10.8896 1.67201 9.1896 1.67201 7.07427C1.67201 4.95936 2.42884 3.25894 3.94388 1.9728C5.42956 0.658239 7.25896 0.000595093 9.43133 0.000595093C13.0326 0.000595093 15.576 1.34462 17.0623 4.03035L15.3903 4.75909C14.8181 3.81592 14.1325 3.11623 13.3324 2.65833C12.3318 2.03026 11.0314 1.71548 9.43133 1.71548C7.74475 1.71548 6.34484 2.1867 5.23013 3.13028C4.02965 4.13101 3.42947 5.44505 3.42947 7.07427C3.42947 8.53153 4.05765 9.80404 5.3158 10.8896C6.02985 11.4619 7.45912 12.2336 9.60276 13.2051C10.946 13.805 12.1036 14.3987 13.0755 14.9841C14.0467 15.5701 14.833 16.1629 15.4335 16.7632C17.0903 18.392 17.9198 20.4219 17.9198 22.8507C17.9198 26.7381 16.2757 29.2962 12.9898 30.5247Z"
    fill="white" />
</svg>