<svg width="24" height="24" viewBox="0 0 24 24" fill="none" xmlns="http://www.w3.org/2000/svg">
  <path
    d="M23.8 11.478C22.9485 9.42837 21.665 7.5865 20.037 6.07796L23.057 3.05896L20.939 0.938965L17.565 4.31396C15.8543 3.39738 13.9407 2.92527 12 2.94096C3.5 2.94096 0.327 11.129 0.2 11.478L0 12L0.2 12.522C1.05153 14.5716 2.33504 16.4134 3.963 17.922L0.939 20.939L3.061 23.061L6.435 19.686C8.14571 20.6025 10.0593 21.0747 12 21.059C20.5 21.059 23.673 12.871 23.8 12.522L24 12L23.8 11.478ZM3.212 12C3.965 10.445 6.619 5.91596 12 5.91596C13.1385 5.9113 14.267 6.12904 15.322 6.55696L13.562 8.31697C12.8283 8.0055 12.0182 7.92034 11.2358 8.07242C10.4533 8.22451 9.73418 8.60689 9.17055 9.17052C8.60692 9.73414 8.22454 10.4533 8.07246 11.2358C7.92038 12.0182 8.00553 12.8282 8.317 13.562L6.065 15.813C4.87455 14.7401 3.90537 13.4448 3.212 12ZM12 18.084C10.8615 18.0886 9.73304 17.8709 8.678 17.443L10.438 15.683C11.1717 15.9944 11.9818 16.0796 12.7642 15.9275C13.5467 15.7754 14.2658 15.393 14.8294 14.8294C15.3931 14.2658 15.7755 13.5466 15.9275 12.7642C16.0796 11.9817 15.9945 11.1717 15.683 10.438L17.935 8.18696C19.1257 9.25964 20.0949 10.555 20.788 12C20.035 13.555 17.381 18.084 12 18.084Z"
    fill="#444444" />
</svg>